/* XPM */
const char * plots64_xpm[] = {
"64 64 50 1",
" 	c None",
".	c #0000FF",
"+	c #0000FD",
"@	c #FF0000",
"#	c #FD0000",
"$	c #FE0000",
"%	c #EA0015",
"&	c #F2000E",
"*	c #F90006",
"=	c #0500FA",
"-	c #0F00F1",
";	c #1800E8",
">	c #2300DD",
",	c #2C00D4",
"'	c #3500CB",
")	c #3E00C2",
"!	c #4800B7",
"~	c #5C00A4",
"{	c #81007F",
"]	c #C1003F",
"^	c #FA0004",
"/	c #FC0003",
"(	c #DE0023",
"_	c #CB0035",
":	c #FB0004",
"<	c #BA0046",
"[	c #FE0001",
"}	c #FA0005",
"|	c #AB0055",
"1	c #9B0065",
"2	c #FA0006",
"3	c #8F0071",
"4	c #F90007",
"5	c #86007A",
"6	c #F80007",
"7	c #7E0082",
"8	c #F70008",
"9	c #770089",
"0	c #F60009",
"a	c #6F0091",
"b	c #F5000B",
"c	c #66009A",
"d	c #F3000C",
"e	c #5D00A3",
"f	c #F2000D",
"g	c #5400AC",
"h	c #F1000E",
"i	c #4A00B6",
"j	c #4500BA",
"k	c #5300AC",
"                                                                ",
"                                                                ",
"                                                                ",
"                                                                ",
"                    .....+        @#                            ",
"                 ...........     $@@                            ",
"               .............     @@@                            ",
"            .................    @@@@                           ",
"         ............    .....   @@@@                           ",
"       ...........        ....  @@@@@                           ",
"       ........            ...  @@@@@                           ",
"        .....              .... @@@@@                           ",
"        ..                  ... @@@@@                           ",
"                            ... @@@@@@                          ",
"                            ....@@@@@@                          ",
"                             ...@@@@@@                          ",
"                             ...%@@@@@                          ",
"                             ...&@@@@@                          ",
"                             ...*@@@@@@                         ",
"                             ...@@@ @@@                         ",
"                              .=@@@ @@@@                        ",
"                              .-@@@  @@@                        ",
"                              .;@@@  @@@@                       ",
"                              .>@@@  @@@@@                      ",
"                              .,@@@   @@@@@@                    ",
"                               '@@@    @@@@@@@                  ",
"                               )@@@     @@@@@@@@@@@@            ",
"                               !@@@      @@@@@@@@@@@@@@@@@@     ",
"                               ~@@@        @@@@@@@@@@@@@@@@     ",
"                               {@@@           @@@@@@@@@@@@@     ",
"        #                      ]@@^                @@@@@@@@     ",
"        @@@@@@@@@               @/(                             ",
"       @@@@@@@@@@@@@@@          @/_                             ",
"       @@@@@@@@@@@@@@@@@        @:<                             ",
"        $@@@@@@@@@@@@@@@@@     @[}|                             ",
"                 @@@@@@@@@@    @@}1.                            ",
"                     @@@@@@@   @@23.                            ",
"                       @@@@@   @@45.                            ",
"                         @@@@  @@67.                            ",
"                          @@@  @@89.                            ",
"                          @@@@ @@0a.                            ",
"                           @@@ @@bc..                           ",
"                           @@@@@@de..                           ",
"                            @@@@@fg..                           ",
"                            @@@@@hi..                           ",
"                            @@@@@hj..                           ",
"                            @@@@@6k...                          ",
"                            @@@@@@ ...                          ",
"                             @@@@@ ...                          ",
"                             @@@@@ ....                ....     ",
"                             @@@@@  ...              ......     ",
"                             @@@@@  ...           .........     ",
"                             @@@@@  ....       ............     ",
"                              @@@@   ....   .............       ",
"                              @@@@   .................          ",
"                              @@@@    .............             ",
"                              @@@      .........                ",
"                               @         ....                   ",
"                                                                ",
"                                                                ",
"                                                                ",
"                                                                ",
"                                                                ",
"                                                                "};
