/* XPM */
const char * plots24_xpm[] = {
"24 24 20 1",
" 	c None",
".	c #0000FF",
"+	c #FF0000",
"@	c #1400EB",
"#	c #EF0010",
"$	c #1600E9",
"%	c #E4001B",
"&	c #1E00E1",
"*	c #E60019",
"=	c #2E00D2",
"-	c #E80017",
";	c #E90016",
">	c #ED0012",
",	c #F70008",
"'	c #F2000E",
")	c #EC0014",
"!	c #E5001A",
"~	c #DE0021",
"{	c #D3002C",
"]	c #F2000D",
"                        ",
"                        ",
"     ...... ++          ",
"   ....   . ++          ",
"   .      .@++          ",
"           @#+          ",
"           $%+          ",
"           &*++         ",
"           =- ++        ",
"            ;  ++       ",
"            >   ++++++  ",
"            ,      +++  ",
"   ++++++   '           ",
"       +++  )           ",
"         ++ !.          ",
"          ++~.          ",
"          ++{.          ",
"           +].          ",
"           ++.       .  ",
"           ++ .   ....  ",
"           ++ ......    ",
"               ..       ",
"                        ",
"                        "};
