/* XPM */
const char * plots32_xpm[] = {
"32 32 32 1",
" 	c None",
".	c #0000FF",
"+	c #0101FF",
"@	c #FF0101",
"#	c #FF0000",
"$	c #FE0000",
"%	c #B70047",
"&	c #8B0073",
"*	c #73008B",
"=	c #680096",
"-	c #670097",
";	c #6F008F",
">	c #7C0082",
",	c #91006E",
"'	c #AE0050",
")	c #D70028",
"!	c #FD0001",
"~	c #E50019",
"{	c #C3003B",
"]	c #A70057",
"^	c #9B0063",
"/	c #93006C",
"(	c #1500EA",
"_	c #8D0071",
":	c #0900F5",
"<	c #8B0074",
"[	c #0400FA",
"}	c #93006B",
"|	c #0000FD",
"1	c #B2004C",
"2	c #0000FE",
"3	c #DF001F",
"         .+                     ",
"     ........   @#              ",
"   ....    ..   ##              ",
" ...        ..  ##              ",
" .           .  $#              ",
"             .. ###             ",
"             ..%###             ",
"              .&###             ",
"              .*#$#             ",
"              .=# ##            ",
"              .-#  #            ",
"               ;#  ##           ",
"               >#   ##          ",
"               ,#    ####       ",
"               '#      ######## ",
"               )#          #####",
"               !~               ",
" #######       #{               ",
"     ######    #]               ",
"         ###   #^               ",
"           ##  #/(              ",
"            #  #_:              ",
"            ## #<[              ",
"             ###}|              ",
"             ###12              ",
"             ###3..             ",
"              ## ..             ",
"              #$  2             ",
"              ##  ..         ...",
"              ##  ..      ..... ",
"              ##   ... .....    ",
"               #    .....       "};
