/* XPM */
const char * plots48_xpm[] = {
"48 48 21 1",
" 	c None",
".	c #0000FE",
"+	c #0000FF",
"@	c #FF0202",
"#	c #FF0000",
"$	c #FE0000",
"%	c #0000FD",
"&	c #FD0000",
"*	c #870076",
"=	c #770087",
"-	c #7C0082",
";	c #93006B",
">	c #980065",
",	c #A40058",
"'	c #DF001F",
")	c #D2002C",
"!	c #A3005B",
"~	c #990064",
"{	c #80007E",
"]	c #70008D",
"^	c #6E008F",
"                                                ",
"            ....+        @                      ",
"         ++..   .+       #                      ",
"      ..+.        .     $$                      ",
"   %...           ..    $$#                     ",
" ...               .    $$$                     ",
"                   ..   $#$                     ",
"                    .   $ $                     ",
"                    +   $ #                     ",
"                    %+  # &#                    ",
"                     .  $  $                    ",
"                     +  $  $                    ",
"                     .  &  #                    ",
"                     .+ $  $#                   ",
"                      + #   #                   ",
"                      + $   $                   ",
"                      + #    $                  ",
"                      +*#    $$                 ",
"                      +=#     $$                ",
"                       -#      $&$              ",
"                       ;#        $#$#           ",
"                       >#           $&$$$       ",
"                       ,#               $#$$#$# ",
"                       '#                       ",
"                       #)                       ",
" $$$$                  #!                       ",
"   $$$##$##            #~                       ",
"          $#$$         #{                       ",
"             &$$       #-                       ",
"                $      #]+                      ",
"                 $     #^+                      ",
"                  $    # +                      ",
"                  $$   # +                      ",
"                   $   $ +                      ",
"                   $   # +                      ",
"                    $  $  +                     ",
"                    &  #  .                     ",
"                    $  $  %                     ",
"                    $$ $  .%                    ",
"                     # $   .                    ",
"                     $ #   +                    ",
"                     $##   .                    ",
"                     $$$    .                 . ",
"                     $$$    .             ...+  ",
"                      ##     .         ....     ",
"                      $      ..      .+.        ",
"                      $        ......           ",
"                                                "};
