/* XPM */
const char * plots32_xpm[] = {
"32 32 37 1",
" 	c None",
".	c #0000FF",
"+	c #0000FE",
"@	c #FF0000",
"#	c #3100CE",
"$	c #2B00D4",
"%	c #2900D6",
"&	c #D70028",
"*	c #2900D7",
"=	c #C80038",
"-	c #3100CF",
";	c #CC0033",
">	c #3E00C1",
",	c #D0002F",
"'	c #4F00B0",
")	c #D3002D",
"!	c #670099",
"~	c #D5002A",
"{	c #D70029",
"]	c #E4001B",
"^	c #FE0000",
"/	c #F70008",
"(	c #F6000A",
"_	c #F4000D",
":	c #7C0084",
"<	c #F1000F",
"[	c #60009F",
"}	c #EE0011",
"|	c #4D00B3",
"1	c #EB0014",
"2	c #3E00C2",
"3	c #E6001A",
"4	c #3800C8",
"5	c #E1001E",
"6	c #3500CA",
"7	c #3700C8",
"8	c #4100BE",
"                                ",
"                                ",
"         ....+   @              ",
"       .......  @@              ",
"    ......   .. @@              ",
"    ...       .#@@              ",
"              .$@@@             ",
"              .%&@@             ",
"               *=@@             ",
"               -;@@             ",
"               >, @@            ",
"               ') @@@           ",
"               !~  @@@@         ",
"                {   @@@@@@@@@   ",
"                ]     @@@@@@@   ",
"    ^@@         /           ^   ",
"    @@@@@@@     (               ",
"      @@@@@@@   _:              ",
"           @@@  <[              ",
"             @@ }|              ",
"             @@@12              ",
"              @@34              ",
"              @@56.             ",
"              @@@7.             ",
"               @@8.         .   ",
"               @@ ..      ...   ",
"               @@ ..   ......   ",
"               @@  .......      ",
"               @    ....        ",
"                                ",
"                                ",
"                                "};
