/* XPM */
const char * plots16_xpm[] = {
"16 16 19 1",
" 	c None",
".	c #0000FF",
"+	c #FF0000",
"@	c #F60009",
"#	c #2000DF",
"$	c #E5001A",
"%	c #2C00D5",
"&	c #DE0021",
"*	c #4D00B2",
"=	c #DC0023",
"-	c #EA0015",
";	c #F90006",
">	c #BE0042",
",	c #8B0074",
"'	c #75008B",
")	c #780087",
"!	c #A1005E",
"~	c #0700F8",
"{	c #0400FB",
"                ",
"    ... +       ",
"  ..  . @       ",
"       #$       ",
"       %&+      ",
"       *=+      ",
"        - ++    ",
"        ;   +++ ",
"  ++++  >       ",
"      ++,       ",
"       +'       ",
"       +)       ",
"       +!~    . ",
"       + {....  ",
"                ",
"                "};
