/* XPM */
const char * plots48_xpm[] = {
"48 48 27 1",
" 	c None",
".	c #0000FF",
"+	c #0000FC",
"@	c #FF0000",
"#	c #FB0005",
"$	c #0500FB",
"%	c #1100EF",
"&	c #1E00E2",
"*	c #2B00D5",
"=	c #3A00C5",
"-	c #FE0000",
";	c #5600AB",
">	c #FE0001",
",	c #F0000F",
"'	c #E80018",
")	c #E3001D",
"!	c #DE0022",
"~	c #D60029",
"{	c #CD0032",
"]	c #C3003D",
"^	c #B90046",
"/	c #AE0052",
"(	c #A3005D",
"_	c #980067",
":	c #A4005B",
"<	c #ED0012",
"[	c #0000FE",
"                                                ",
"                                                ",
"                                                ",
"               ....+     @@                     ",
"            .........    @@                     ",
"         .............   @@                     ",
"      .........    ...  @@@@                    ",
"      ......        ... @@@@                    ",
"      ....           .. @@@@                    ",
"      .              .. @@@@                    ",
"                     ...@@@@                    ",
"                     ...@@@@                    ",
"                      ..#@@@@                   ",
"                      ..@@@@@                   ",
"                      ..@@ @@                   ",
"                      ..@@ @@@                  ",
"                       $@@ @@@                  ",
"                       %@@  @@@@                ",
"                       &@@   @@@@               ",
"                       *@@    @@@@@@@           ",
"                       =@@     @@@@@@@@@@@@-    ",
"                       ;@@       @@@@@@@@@@@    ",
"                        @>          @@@@@@@@    ",
"      -@@@@@            @,                 -    ",
"      @@@@@@@@@@        @'                      ",
"      @@@@@@@@@@@@      @)                      ",
"           @@@@@@@@@    @!.                     ",
"                @@@@@  @@~.                     ",
"                  @@@@ @@{.                     ",
"                   @@@ @@].                     ",
"                    @@@@@^.                     ",
"                    @@@@@/.                     ",
"                     @@@@(..                    ",
"                     @@@@_..                    ",
"                     @@@@:..                    ",
"                     @@@@<..                    ",
"                      @@@ ...                   ",
"                      @@@  ..            ...    ",
"                      @@@  ...        ......    ",
"                      @@@  ...     .........    ",
"                      @@@   .............       ",
"                       @@   ..........          ",
"                       @-    [......            ",
"                                                ",
"                                                ",
"                                                ",
"                                                ",
"                                                "};
