/* XPM */
const char * plots16_xpm[] = {
"16 16 14 1",
" 	c None",
".	c #0000FF",
"+	c #FF0000",
"@	c #FE0000",
"#	c #3400C9",
"$	c #2F00CE",
"%	c #3B00C3",
"&	c #5E009F",
"*	c #C2003B",
"=	c #7F007E",
"-	c #5600A7",
";	c #4200BB",
">	c #4F00AE",
",	c #0000FE",
"   ...          ",
" ..   . +       ",
"      . @       ",
"       #+       ",
"       $++      ",
"       % +      ",
"       &  ++    ",
"            ++++",
"+++     *       ",
"    ++  =       ",
"      + -       ",
"      + ;       ",
"       +>       ",
"       @ ,      ",
"       + .    ..",
"       +  ...   "};
