/* XPM */
static const char * plots16_xpm[] = {
"16 16 3 1",
" 	c None",
".	c #0000FF",
"+	c #FF3300",
"                ",
"  ....  ++      ",
"...   . ++      ",
"      . ++      ",
"       .+++     ",
"       .+ +     ",
"       .+ +++   ",
"       .+   ++++",
"++++   +.       ",
"   +++ +.       ",
"     + +.       ",
"     +++.       ",
"      ++..      ",
"      ++ .   ...",
"      ++  ....  ",
"                "};
