/* XPM */
static char * plots128_xpm[] = {
"128 128 37 1",
" 	c None",
".	c #0000FF",
"+	c #0000FE",
"@	c #FF0000",
"#	c #FE0000",
"$	c #FF0C0C",
"%	c #4400BA",
"&	c #4300BB",
"*	c #3900C5",
"=	c #EA0015",
"-	c #E80017",
";	c #3900C6",
">	c #E70018",
",	c #4000BE",
"'	c #F4000A",
")	c #4E00B0",
"!	c #4F00AF",
"~	c #4D00B1",
"{	c #4C00B2",
"]	c #4B00B3",
"^	c #5200AC",
"/	c #8E0070",
"(	c #B70048",
"_	c #DE0020",
":	c #D0002E",
"<	c #80007E",
"[	c #62009C",
"}	c #5700A7",
"|	c #4A00B4",
"1	c #EC0012",
"2	c #3B00C3",
"3	c #E70017",
"4	c #E80016",
"5	c #E4001A",
"6	c #2500D9",
"7	c #2800D6",
"8	c #2C00D2",
"                                                                                                                                ",
"                                                                                                                                ",
"                                                                                                                                ",
"                                   ....+...                                                                                     ",
"                              ++.+.++.++++....                    @#$                                                           ",
"                           ...++++++.....+.+.+.                  @@@@#                                                          ",
"                        ..+++.++.+.        +....+                ##@@#                                                          ",
"                     ..+.......              .+..+               @@@@#                                                          ",
"                  +.+...+.++                  +.++               @#@@@@                                                         ",
"                ..++.++..                      +..+              #@@@@@                                                         ",
"             +.+.++...                          .++.             ###@@#                                                         ",
"          .++.....+                              ..+             @@###@                                                         ",
"       ++.+++.+++                                ....            @##@#@                                                         ",
"    ..+.+++...                                    +++            @@ #@#                                                         ",
"  +++....+                                         .+.           #@ @##                                                         ",
"  ++..+                                            +++           @@ #@#@                                                        ",
"  ..                                                +++         #@#  @#@                                                        ",
"                                                    .+.         #@@  #@#                                                        ",
"                                                    .+.         @#@  ##@                                                        ",
"                                                     +++        ##@  ##@                                                        ",
"                                                     ...        #@@  @@@                                                        ",
"                                                     ...        @@#   @#@                                                       ",
"                                                      ..+       @#@   @##                                                       ",
"                                                      +++       #@@   @@@                                                       ",
"                                                      +..       @@#   #@@                                                       ",
"                                                       +.+      @@#   ##@                                                       ",
"                                                       ...      #@@    @@@                                                      ",
"                                                       +.+      @#@    @#@                                                      ",
"                                                       ...+     @#@    @#@                                                      ",
"                                                        ..+     #@@    @@#                                                      ",
"                                                        ...     @@@     ###                                                     ",
"                                                        ++.     @@@     @@@                                                     ",
"                                                        +.+     @#@     @@@                                                     ",
"                                                         +.+    @##     @#@                                                     ",
"                                                         +++    #@       #@#                                                    ",
"                                                         .+.    ##       @@@                                                    ",
"                                                         +..    #@       ##@                                                    ",
"                                                         .++.  @#@        @@@                                                   ",
"                                                          .++  #@@        @#@                                                   ",
"                                                          ++.  @@@        #@@@                                                  ",
"                                                          .++  @@@         #@@                                                  ",
"                                                          .... #@#         @#@#                                                 ",
"                                                          ..+. ##@          @##                                                 ",
"                                                           ... @#@          #@#@                                                ",
"                                                           ... @@@           @@@@                                               ",
"                                                           ++. @@#            @##                                               ",
"                                                           ++.%@@#            #@@@                                              ",
"                                                            +.&@#@             ##@#                                             ",
"                                                            +.*=@#              @#@#                                            ",
"                                                            +.*-@@               @#@@                                           ",
"                                                            ..*-@@                #@#@#                                         ",
"                                                            ..*-@@                 @@#@#@                                       ",
"                                                            +.;>@@                  ##@###@                                     ",
"                                                             .,'@@                    @####@#                                   ",
"                                                             .)@@@                      @#@##@#@                                ",
"                                                             .!@#@                        #@#@#@@@@@                            ",
"                                                             .)@@#                           @##@@#@#@@@##                      ",
"                                                             .~@#@                              @###@#@@@#@@@@@@                ",
"                                                              {@#@                                  #@##@@##@##@@##@@@@@##@     ",
"                                                              ]@@@                                       @@@#@@@@@@#@@#@#@@#@@  ",
"                                                              ^@@@                                             @#@#@@@@@@@@@#@  ",
"                                                              /@@@                                                      @@@@@@  ",
"                                                              (@@@                                                              ",
"                                                              _@#@                                                              ",
"                                                               #@:                                                              ",
"                                                              @@@<                                                              ",
"                                                              @@@[                                                              ",
"  #@@#                                                         @@}                                                              ",
"  #@@##@@@#@#@@@                                              @#@|                                                              ",
"  #@@@##@@@#@@#@#@@##@@                                       @#@]                                                              ",
"      #@@@@@#@#@#@@##@@#@@@@                                  @#@~.                                                             ",
"               #@@#@#@##@@#@@@#@                              @@@|.                                                             ",
"                      #@@@##@@@@#@@                           @@12.                                                             ",
"                            @##@@##@#@                        @@3;.                                                             ",
"                                @#@#@#@@                      @@-*.                                                             ",
"                                   ####@#@                    @@-*.                                                             ",
"                                     @#@@#@#                  @@-*.+                                                            ",
"                                       @##@@@                 @@-*..                                                            ",
"                                         ####@                @@4*.+                                                            ",
"                                           @###               @@56..                                                            ",
"                                            ###@              #@@7..                                                            ",
"                                             #@##             @#@8.++                                                           ",
"                                              #@##            ##@ ..+                                                           ",
"                                               @#@            #@@ ...                                                           ",
"                                               @@#@           #@@ .++                                                           ",
"                                                @@##          #@@ ..+                                                           ",
"                                                 @@@          @@# .+++                                                          ",
"                                                 @@@@         @@@  +++                                                          ",
"                                                  @#@         @#@  .++                                                          ",
"                                                  #@@#        @#   ++.                                                          ",
"                                                   ##@        #@   +++                                                          ",
"                                                   ###        @@   +.+.                                                         ",
"                                                    @@#      @#@    ..+                                                         ",
"                                                    @#@      #@@    ...                                                         ",
"                                                    #@@       ##    .++                                                         ",
"                                                     #@@     @@#    ...                                                         ",
"                                                     @#@     @#@     ++.                                                        ",
"                                                     ###     @@@     +..                                                        ",
"                                                     @##@    @@@     .+.                                                        ",
"                                                      ##@    @@@     .+..                                                       ",
"                                                      #@@    @#@      +++                                                       ",
"                                                      @@@    @#@      +..                                                       ",
"                                                      ###    @@@      +..                                                       ",
"                                                       ##@   @@#      ..+                                                       ",
"                                                       @@@   @@#       ..+                                                      ",
"                                                       @@@   @#@       .++                                                      ",
"                                                       @@@   @@@       ..+                                                      ",
"                                                       @@##  ##@        ...                                                     ",
"                                                        #@#  @@#        ..+                                                     ",
"                                                        @#@  #@#        ..+                                                     ",
"                                                        @#@  ##@        +..+                                                    ",
"                                                        @@#  @@@         +++                                                    ",
"                                                        @@@  ###         ..+                                                +.  ",
"                                                        ###@ ##           ++.                                           +++.++  ",
"                                                         @#@@#@           +..                                        +++.+..+.  ",
"                                                         @#@#@@            ...                                    +++++...++    ",
"                                                         @@#@@@            +++.                                 +.++.+.+.       ",
"                                                         @@@@@@             +..                              +.+.+...+          ",
"                                                         #@@@@@             ..+.                          .+..++++.             ",
"                                                         ##@@@@              +..+                      ...+.++...               ",
"                                                          @@@@@              ..+++                   ...+.++.+                  ",
"                                                          ##@@@               +...+              .+...++.+.                     ",
"                                                          ##@#@                +..+..        ..+..+..+.+                        ",
"                                                          @#@#@                  .+++.++...+..+.+.++                            ",
"                                                           @#@                    .+++.+..+...+..                               ",
"                                                           @                         ...+....                                   ",
"                                                                                                                                ",
"                                                                                                                                "};
