/* XPM */
static char * plots64_xpm[] = {
"64 64 24 1",
" 	c None",
".	c #0000FE",
"+	c #0000FD",
"@	c #FE0000",
"#	c #FE0303",
"$	c #0000FF",
"%	c #FF0000",
"&	c #D70026",
"*	c #AB0052",
"=	c #92006C",
"-	c #92006B",
";	c #960067",
">	c #FD0000",
",	c #AC0051",
"'	c #A80056",
")	c #A3005A",
"!	c #B50049",
"~	c #E90015",
"{	c #DC0022",
"]	c #B0004E",
"^	c #A1005D",
"/	c #A70056",
"(	c #890074",
"_	c #8F006E",
"                                                                ",
"                                                                ",
"              .+.......          @#                             ",
"           .$...      $..        @@                             ",
"        $....          ..       @@%                             ",
"      ....              ..      @@@                             ",
"   ....                  ..     %@@@                            ",
" +...                    ..     @@@@                            ",
" $                        .     @@@@                            ",
"                          ..    @% @                            ",
"                           $    @  @                            ",
"                           .    @  @                            ",
"                           ..   %  @%                           ",
"                           ..   @  %@                           ",
"                            $   @   @                           ",
"                            .$  %   @                           ",
"                            ..  @   @%                          ",
"                             .  @   @@                          ",
"                             .  @    @                          ",
"                             .  %    @%                         ",
"                             .. @     @                         ",
"                             $$ @     @@                        ",
"                              $&@      @@                       ",
"                              $*@      @@                       ",
"                              $=%       @@                      ",
"                              $-%        @@@                    ",
"                              $;%          @>@                  ",
"                              $,@            @@@@               ",
"                               '@              >@@@%@%          ",
"                               )@                  >%@@@@@%@@@@ ",
"                               !%                         @%%%@ ",
"                               ~%                               ",
"                               %{                               ",
"                               %]                               ",
" @@@%@@@@@                     @^                               ",
"     %@@@@@@%@%                @/                               ",
"             >@@@@             %-$                              ",
"                 @@@@          %-$                              ",
"                   @@@         %-$                              ",
"                     @@        %($                              ",
"                      >@       @_$                              ",
"                       @@      @ $                              ",
"                        @@     @ $.                             ",
"                         %     % .+                             ",
"                         @@    @  .                             ",
"                          @    @  .                             ",
"                          @    @  $                             ",
"                          @%   @  ..                            ",
"                           @   @  +.                            ",
"                           >   %   .                            ",
"                           @%  @   .                            ",
"                           @@  @   ..                           ",
"                           @%  @   $.                           ",
"                            @ @@    .                           ",
"                            @ @@    $+                          ",
"                            @@@@    ..                          ",
"                            @@@@     .                       .. ",
"                            %@@%     .$                   ..... ",
"                             @%%      .                .....    ",
"                             @%%      ..            .....       ",
"                             @%        ..        .....          ",
"                             @@         $..+ .$....             ",
"                              @           ....$.                ",
"                                                                "};
