/* XPM */
static char * plots24_xpm[] = {
"24 24 19 1",
" 	c None",
".	c #0000FF",
"+	c #0000FE",
"@	c #FF0000",
"#	c #FE0000",
"$	c #70008D",
"%	c #5B00A2",
"&	c #5500A8",
"*	c #5F009E",
"=	c #73008A",
"-	c #94006A",
";	c #C90035",
">	c #DC0021",
",	c #AD0050",
"'	c #93006A",
")	c #83007A",
"!	c #780085",
"~	c #790084",
"{	c #980065",
"      ..                ",
"   +..+ ..  @#          ",
" ...     +  @#          ",
"          . #@          ",
"          . @#          ",
"          .$@@          ",
"          .%@#          ",
"           &@ #         ",
"           *@ @#        ",
"           =@  #@       ",
"           -@   @@@@#   ",
"           ;@       ####",
" #         @>           ",
" @#@@#@    @,           ",
"       #@  @'           ",
"        ## @)           ",
"         @ @!           ",
"          @@~.          ",
"          #@{.          ",
"          #@ .          ",
"          @# .          ",
"          #@  .       .+",
"           @  ++   +++  ",
"           @   ....     "};
