/* XPM */
static const char * plots32_xpm[] = {
"32 32 4 1",
" 	c None",
".	c #0000FF",
"+	c #FF0000",
"@	c #6D007D",
"                                ",
"                                ",
"       .....     ++             ",
"    .....  ..    ++             ",
"  ....      ..   ++             ",
"...         ..   ++             ",
"             .   + +            ",
"             ..  + +            ",
"              . +  +            ",
"              . +  ++           ",
"              . +   +           ",
"              ..+   ++          ",
"               .+    ++         ",
"               .+     +++       ",
"               .+       +++++   ",
"               @+           ++++",
"+++++          +@               ",
"  ++++++       +.               ",
"       +++     +.               ",
"         ++    +.               ",
"          ++   +..              ",
"           +   + .              ",
"           ++  + .              ",
"            +  + .              ",
"            + +  ..             ",
"            + +  ..             ",
"             ++   .          ...",
"             ++   ..      ....  ",
"             ++    ... .....    ",
"             ++     .....       ",
"                                ",
"                                "};
